<svg xmlns="http://www.w3.org/2000/svg" xmlns:xlink="http://www.w3.org/1999/xlink" viewBox="0 0 990.1 199"><defs><style>.cls-1{fill-rule:evenodd;fill:url(#linear-gradient);}</style><linearGradient id="linear-gradient" x1="495.05" y1="199" x2="495.05" gradientUnits="userSpaceOnUse"><stop offset="0" stop-color="#152852"/><stop offset="0.27" stop-color="#192a53"/><stop offset="0.54" stop-color="#262e56"/><stop offset="0.83" stop-color="#3a365c"/><stop offset="1" stop-color="#4b3d60"/></linearGradient></defs><title>Asset 2layer2</title><g id="Layer_2" data-name="Layer 2"><g id="Layer_1-2" data-name="Layer 1"><path class="cls-1" d="M587.79,10.78a179.74,179.74,0,0,0-1.57,19v8.43h-7.85c-5.68,0-7.84.79-7.84,2.94a3,3,0,0,1-2.94,2.94c-1.57,0-2.94,1.77-2.94,3.92,0,2.55-1.37,3.93-3.92,3.93-3.73,0-3.92,1.37-3.92,33.33,0,28.23-.39,33.33-2.94,33.33-2.16,0-2.94-2.16-2.94-7.45,0-10.4-4.91-14.12-18.63-14.12-10.19,0-10.78-.2-10.78-4.9,0-4.12-1-4.9-5.88-4.9-5.49,0-5.89-.59-5.89-6.87,0-3.72-.78-6.86-2-6.86-1,0-2,3.14-2,6.86s-.78,6.87-2,6.87c-1,0-2-1.38-2-2.94a2.94,2.94,0,1,0-5.88,0c0,2.15-2.35,2.94-9.8,2.94-9.22,0-9.81.39-9.81,4.9,0,3.53-1,4.9-3.92,4.9-2.15,0-3.92.78-3.92,2,0,1-2.16,2-4.9,2-3.92,0-4.9-1-4.9-4.9,0-4.31-.79-4.9-6.67-4.9-3.72,0-7.45-1-8-2-.58-1.18-7.25-2-14.9-2H415.65V66.66c0-11.76-.79-20.59-2-20.59-2.35,0-11-8.62-13.72-13.92-3.33-6.07-11.37-8.43-16.86-4.7-2.55,1.57-4.71,4.31-4.71,5.88s-1.76,3.73-3.92,4.9-3.92,3.33-3.92,4.9-1.76,2.94-3.92,2.94c-3.72,0-3.92,1.38-3.92,37.26,0,31.76-.39,37.25-2.94,37.25-2.35,0-2.94-3.73-2.94-22.55V75.48h-4.9c-4.12,0-4.91-1-4.91-5.88,0-5.49-.39-5.88-7.64-5.88-4.31,0-8.24-1-8.63-2.55q-1.17-2.94-1.17,0c-.2,1.77-3.73,2.55-11,2.55-10.59,0-10.79,0-10.79,5.88v5.88H274.48v8c0,6.47-.59,7.84-3.33,7.26-4.31-.79-5.88-13.92-2.55-20,1.18-2.55,2-11.18,1.57-20.78l-.59-16.67H234.29l-.59,12.74-.59,12.75-14.5,5.49L203.9,69.8v8.82c0,6.27-.78,8.63-2.94,8.63q-2.94,0-2.94-5.89c0-5.49-.59-5.88-7.06-5.88H183.9l.59-13.33L185.28,49l-10.4-9.6L164.49,29.6l-9.21,9.22c-5.1,5.1-10.59,9.21-12.16,9.21-2.15,0-2.15.59-.39,2.36,1.37,1.37,2.35,7.45,2.35,13.53V75.29l-7.45.58-7.25.59-.59,23.92c-.78,33.33-4.31,31.37-4.31-2.35V71.56H119.6c-5.3,0-5.89-.59-5.89-5.88V59.8H78.42v7.84c0,6.47-.58,7.84-3.92,7.84-2.94,0-3.92-1.37-3.92-4.9s-1-4.9-3.92-4.9c-2.16,0-3.92-1.37-3.92-2.94S61,59.8,58.82,59.8c-3.53,0-3.92-1.37-3.92-10.79V38.23H43.13c-11.17,0-11.76.2-11.76,4.9,0,2.94-1.18,4.9-2.75,4.9-1.76,0-3.13,2.36-3.52,5.3-.59,4.7-1.57,5.49-8,6.08L0,60V199H990.1V52.15l-4.31-.59c-3.93-.58-4.51-2-5.1-9.6l-.59-9-22.94-6.47c-12.55-3.53-24.51-6.86-26.27-7.45-3.14-.79-3.53.78-3.53,15.09V50H913.64V89.21h-4.91c-4.7,0-4.9-.59-4.9-11.77V65.88l-20-.59-20.19-.59-.59-8.43L862.46,48H837.17v8.83c0,8-.39,8.82-4.9,8.82-4.7,0-4.9.59-4.9,11.76s-.2,11.77-4.9,11.77h-4.9v25.48c0,21.38-.4,25.49-2.94,25.49s-2.94-4.31-2.94-26.47-.4-26.46-3-26.46-2.94-4.91-2.94-32.35c0-26.67-.39-32.35-2.74-32.35-1.57,0-3.92-2.94-5.1-6.67C793.45,2.16,776.79-1.57,766.4,8.63c-3.14,3.13-5.69,7.64-5.69,9.8,0,2.35-1.18,4.12-2.94,4.12-2.55,0-2.94,4.9-2.94,32.15V87.05l-6.28.59c-5.88.59-6.47,1.17-7,7.84-.59,6.27-1.38,7.45-5.1,7.45-3.33,0-5.3-1.76-7.06-5.68-1.76-4.51-3.72-6.08-8.43-6.47-5.69-.59-6.27-1.18-6.27-7.45,0-4.71-1.18-7.26-3.34-8.24a4.56,4.56,0,0,1-2.55-5.49c.4-2.55-.19-3.92-2.15-3.92-1.57,0-2.55.59-2.55,1.37,1.17,7.65-.2,8.43-13.92,8.43H676.4V91.17h-39l-2.94,5.68c-2.16,3.92-4.51,5.49-8,5.49h-4.9V52h-4.9c-3.53,0-4.91-1-4.91-3.93,0-2.15-1.37-3.92-2.94-3.92a3,3,0,0,1-2.94-2.94c0-2-2-2.94-6.66-2.94-6.67,0-6.87-.19-7.85-10.39-.78-5.49-1.37-14.12-1.76-19L589.16,0Z"/></g></g></svg>