<svg xmlns="http://www.w3.org/2000/svg" xmlns:xlink="http://www.w3.org/1999/xlink" viewBox="0 0 990.1 300"><defs><style>.cls-1{fill-rule:evenodd;fill:url(#linear-gradient);}</style><linearGradient id="linear-gradient" x1="495.05" y1="300" x2="495.05" gradientUnits="userSpaceOnUse"><stop offset="0" stop-color="#4b3d60"/><stop offset="0.14" stop-color="#4f3e60"/><stop offset="0.3" stop-color="#5c405f"/><stop offset="0.45" stop-color="#70445d"/><stop offset="0.6" stop-color="#8d495b"/><stop offset="0.76" stop-color="#b35058"/><stop offset="0.91" stop-color="#e05955"/><stop offset="1" stop-color="#fd5e53"/></linearGradient></defs><title>Asset 24layer4</title><g id="Layer_2" data-name="Layer 2"><g id="Layer_1-2" data-name="Layer 1"><path class="cls-1" d="M546.66,12.51l-9.53,12.36V67.54c0,23.42-.37,53.58-.87,66.9-.74,23.26-.86,24.38-3.34,24.38-1.36,0-5.57-4-9.65-9.14l-7.18-9.15V122.41c0-11.07-.5-18.13-1.24-18.13s-1.24-1.77-1.24-4-.86-4.49-1.85-5c-1.12-.64-1.86-3-1.86-6.41,0-3-.49-5.46-1.24-5.46s-1.23-2.56-1.23-5.61c0-5.3-.25-5.62-4.34-5.62s-4.33.32-4.33,5.46c0,3-.49,6.09-1.24,6.57s-1.23,3-1.23,5.78c0,2.57-.5,4.65-1.24,4.65s-1.24,8.18-1.24,21.5c0,19.89-.12,21.66-2.35,22.62-1.48.48-2.6,2.73-2.85,5.29-.24,3.05-1.23,4.5-3,4.82-1.48.32-4,2.24-5.57,4.49-1.48,2.08-3.21,3.85-3.83,3.85s-1-10.91-1-24.06c0-14.92-.5-24.07-1.24-24.07s-1.24-1.12-1.24-2.41c0-1.6-1.36-2.4-4.33-2.4s-4.33.8-4.33,2.24a3.76,3.76,0,0,1-2.48,3c-2.22.8-2.47,2.25-2.47,14.6V138h-3.71c-3.47,0-3.72-.32-3.72-6.42,0-5.77-.37-6.42-3.09-6.42-4.33,0-8.05,4.66-8.05,10,0,4.33-.24,4.49-5.94,4.49-5.07,0-6.56-.8-9.9-5.29-2.23-2.89-4-6.9-4-8.67,0-1.92-1.36-5.61-3.09-8.18-1.73-2.72-3.1-5.93-3.1-7.38s-1.11-2.56-3.09-2.56-3.09-1-3.09-2.41c0-1.6-1.37-2.41-4.34-2.41s-4.33.81-4.33,2.41a2.24,2.24,0,0,1-2,2.41c-1.48,0-1.85,1.6-1.73,7.54.49,16.84,0,21.33-1.86,21.33-1.36,0-1.85,1.77-1.85,6.1,0,4.81-.87,7.22-4.33,11.55l-4.34,5.46v-56.8h-5.57c-5.07,0-5.57-.32-5.57-4,0-3.85-.37-4-7.67-4-6.68,0-8.17.64-11.14,4.33-3.34,4.18-3.46,4.66-3.46,22.3,0,20.22-.5,23.11-3.84,23.11a9.76,9.76,0,0,0-4.58,1.44,28.66,28.66,0,0,1-4.21,2.41c-1.61.64-2.22,2.56-2.22,6.57v5.62H323V136.36h-8.66V61h-7.18c-10,0-11.39,2.25-11.39,18.13V91.44h-7.42v-69H282.3c-6.06,0-6.19,0-6.56-5.45l-.37-5.62-8.29,10.43-8.42,10.27V134.76H250v-9.63c0-5.29-.5-9.62-1.24-9.62s-1.24-5.94-1.24-14.44c0-14.12-.12-14.44-3-14.44a6,6,0,0,1-4.45-2.41c-1.73-2.72-10.15-3.2-13.74-.8C224.26,85,224,87,224,105.08v20h-9.9v19.26H200.5V62.57h-8.05c-7.55,0-8.17.32-9.28,4-.62,2.24-1.73,4-2.48,4s-1.23,13.8-1.23,40.11c0,39-.13,40.1-2.48,40.1-2,0-2.48,1.13-2.48,4.81,0,4.5-.37,4.82-4.33,4.82-4.33,0-4.33,0-4.33-7.22,0-5.3-.49-7.22-1.85-7.22s-1.86-2.09-1.86-9.79c0-8.34-.37-9.94-2.48-10.59-1.61-.48-2.47-2.24-2.47-4.65s-.74-3.85-1.86-3.85-1.85-1.44-1.85-3.21c0-2.72-.87-3.2-5.57-3.2-4.09,0-5.57.64-5.57,2.4,0,1.45-1.12,2.41-3.1,2.41-3,0-3.09.48-3.09,9.62s-.13,9.63-3.1,9.63-3-.48-3.34-10.91l-.37-10.75-4.45-.48c-2.85-.32-4.95.32-6.07,1.93-.86,1.6-3.46,2.56-6.31,2.56h-4.83v18.45c0,17.33-.12,18.45-2.47,18.45-1.61,0-2.48,1.12-2.48,3.21,0,2.89-.86,3.21-8.66,3.21H85.4V138.77c0-11.87-.5-21.66-1.12-21.66s-1.36-1.44-1.73-3.21a4,4,0,0,0-7.92,0c-.37,1.77-1.36,3.21-2.23,3.21-2.23,0-3,5-4,25.19l-.74,18.13H58.17v-16H44.55V118.24c0-24.07-.12-26.31-2.47-28.88-3.22-3.53-9.9-3.69-9.9-.32a2.24,2.24,0,0,1-1.86,2.4c-1.48,0-1.85,2.89-1.85,16.85v16.84H19.8v17.81c0,17.49,0,17.65-2.72,17.17s-2.85-1.13-3.22-21.82l-.37-21.18h-3c-1.73,0-3.09.64-3.09,1.61a1.83,1.83,0,0,1-1.86,1.6c-1.61,0-1.86,3.37-1.86,20.05s-.24,20.06-1.85,20.06S0,169.25,0,230.21V300H990.1V125.13H979v35.46l-5.82-.48-5.94-.48-.37-33.37-.25-33.21H962.5a8.21,8.21,0,0,0-6.81,3.69c-2.47,3.37-2.72,5.45-2.72,22.46,0,17.16-.25,18.77-2.23,18.77-3.09,0-6.43,5-6.43,9.46,0,2.25-.62,3.37-1.49,3-1.11-.48-1.73-6.58-2-21.18l-.37-20.37-4.58.48c-4.45.48-4.58.64-4.95,7.22-.37,6.9-.37,6.9-5.32,6.9h-4.83V104.28c0-16-.25-19.25-1.85-19.25a2.25,2.25,0,0,1-1.86-2.41,2.48,2.48,0,0,0-2.48-2.41c-1.6,0-2.47,1.13-2.47,3.21s-.87,3.21-2.48,3.21c-2.35,0-2.47,1.28-2.72,36.42l-.37,36.58-9.53.48-9.65.48v-13.8c0-13.47,0-13.63-3.1-13.63-2.84,0-3-.49-3.34-11.72l-.37-11.55-6.44-.48-6.43-.48-.37,22.94c-.37,21.66-.5,22.94-2.85,22.94s-2.48-1.28-2.85-12c-.24-6.58-1-12.83-1.73-14s-3.46-2.08-6.06-2.08H849V99.47h-9.9v15.08c0,8.5-.5,15.72-1.24,16.2s-1.24,4.49-1.24,9v7.86h-8.54l-.37-14.92-.37-14.76-4.58-.48c-4.08-.48-4.7,0-4.7,2.73s-.74,3.37-3.71,3.37h-3.72v24.06H802.1l-.37-13.31c-.37-13.16-.37-13.16-3.83-13.64a9.45,9.45,0,0,0-6.44,1.93,11.47,11.47,0,0,1-6.56,2.56c-4.08,0-7.67,4.34-7.67,9.31,0,2.89-.74,3.53-4.33,3.53h-4.34V110.7H753.84l-.37,8.34-.38,8.5-5.19.48-5.2.48-.37,10.75L742,150l-7.06.48c-6.06.48-7.18,0-7.18-2.24,0-1.45-1.61-5.14-3.71-8.19-2.35-3.37-3.71-7.22-3.71-10.1,0-4.5-.25-4.82-4.95-4.82h-5v7.7c0,4.18-.62,8.51-1.49,9.63-4.45,5.78-12.13-1.6-12.13-11.39,0-4.81-.49-5.94-2.47-5.94-2.35,0-2.48-1.12-2.48-14.43V96.26H679.46v64.17h-9.91V146.31c0-12.19-.37-14.6-2.47-17.17-2-2.24-2.48-5-2.48-12,0-10.43-1.36-12.83-7.05-12.83h-4.08V121.6c0,15.41-.25,17.81-2.48,20.38-2.48,2.89-2.48,2.73-2.48-6.1,0-6.74-.49-9.14-1.73-9.14-.86,0-2-1.45-2.35-3.21-.74-3.85-6.81-4.49-7.8-.8a3.74,3.74,0,0,1-3.09,2.4c-2.1,0-2.35,1.45-2.35,17.65v17.65h-9.9V139.57c0-16-.37-20.85-1.61-20.85-.87,0-3.47-2.57-5.82-5.62-3.09-4.17-5.2-5.61-8.29-5.61-2.85,0-4.08.8-4.08,2.4s-1.12,2.41-3.1,2.41c-2.47,0-3.09.8-3.09,4,0,3.53-.5,4-4.21,4-3.09,0-4.33.8-4.83,3.21-.37,1.76-1.48,3.21-2.6,3.21-1.73,0-2,2.56-2,17v16.85l-5.81-.48-5.94-.48L569.55,146c-.24-7.54-.86-14.28-1.48-15.08-.74-1-1.24-5.13-1.24-9.31v-7.7h-8.66V57c0-31.28-.37-56.95-1-56.95S552,5.61,546.66,12.51Z"/></g></g></svg>