<svg xmlns="http://www.w3.org/2000/svg" xmlns:xlink="http://www.w3.org/1999/xlink" viewBox="0 0 991.1 181"><defs><style>.cls-1{stroke:#fff;stroke-miterlimit:10;fill-rule:evenodd;fill:url(#linear-gradient);}</style><linearGradient id="linear-gradient" x1="495.55" y1="180.5" x2="495.55" y2="0.5" gradientUnits="userSpaceOnUse"><stop offset="0" stop-color="#fff"/><stop offset="0.06" stop-color="#d4d4d4"/><stop offset="0.14" stop-color="#a9a9a9"/><stop offset="0.22" stop-color="#828282"/><stop offset="0.31" stop-color="#626262"/><stop offset="0.41" stop-color="#484848"/><stop offset="0.51" stop-color="#333"/><stop offset="0.62" stop-color="#252525"/><stop offset="0.77" stop-color="#1d1d1d"/><stop offset="1" stop-color="#1a1a1a"/></linearGradient></defs><title>Asset 45layer7</title><g id="Layer_2" data-name="Layer 2"><g id="Layer_1-2" data-name="Layer 1"><path class="cls-1" d="M588.29,10.25a147.33,147.33,0,0,0-1.57,17.21v7.62h-7.85c-5.68,0-7.84.71-7.84,2.66a2.88,2.88,0,0,1-2.94,2.66c-1.57,0-2.94,1.6-2.94,3.55,0,2.3-1.37,3.55-3.92,3.55-3.73,0-3.92,1.24-3.92,30.14,0,25.54-.39,30.15-2.94,30.15-2.16,0-2.94-2-2.94-6.74,0-9.4-4.91-12.77-18.63-12.77-10.19,0-10.78-.17-10.78-4.43,0-3.72-1-4.43-5.88-4.43-5.49,0-5.89-.54-5.89-6.21,0-3.37-.78-6.21-2-6.21-1,0-2,2.84-2,6.21s-.78,6.21-2,6.21c-1,0-2-1.25-2-2.66a3,3,0,0,0-5.88,0c0,1.95-2.35,2.66-9.8,2.66-9.22,0-9.81.35-9.81,4.43,0,3.19-1,4.43-3.92,4.43-2.15,0-3.92.71-3.92,1.78,0,.88-2.16,1.77-4.9,1.77-3.92,0-4.9-.89-4.9-4.43,0-3.9-.79-4.44-6.67-4.44-3.72,0-7.45-.88-8-1.77-.58-1.06-7.25-1.77-14.9-1.77H416.15V60.8c0-10.64-.79-18.63-2-18.63-2.35,0-11-7.8-13.72-12.59-3.33-5.49-11.37-7.62-16.86-4.25-2.55,1.42-4.71,3.9-4.71,5.32S377.13,34,375,35.08s-3.92,3-3.92,4.43-1.76,2.66-3.92,2.66c-3.72,0-3.92,1.25-3.92,33.7,0,28.73-.39,33.69-2.94,33.69-2.35,0-2.94-3.37-2.94-20.39V68.78h-4.9c-4.12,0-4.91-.89-4.91-5.32,0-5-.39-5.32-7.64-5.32-4.31,0-8.24-.89-8.63-2.31q-1.17-2.65-1.17,0c-.2,1.6-3.73,2.31-11,2.31-10.59,0-10.79,0-10.79,5.32v5.32H275v7.27c0,5.85-.59,7.09-3.33,6.56-4.31-.71-5.88-12.59-2.55-18.09,1.18-2.31,2-10.11,1.57-18.8l-.59-15.07H234.79l-.59,11.52-.59,11.53-14.5,5-14.71,5v8c0,5.68-.78,7.81-2.94,7.81-2,0-2.94-1.78-2.94-5.32,0-5-.59-5.32-7.06-5.32H184.4L185,56.72l.79-11.89-10.4-8.68L165,27.28l-9.21,8.33c-5.1,4.61-10.59,8.34-12.16,8.34-2.15,0-2.15.53-.39,2.13,1.37,1.24,2.35,6.74,2.35,12.23V68.6l-7.45.53-7.25.53-.59,21.64c-.78,30.15-4.31,28.37-4.31-2.13V65.23H120.1c-5.3,0-5.89-.53-5.89-5.32V54.59H78.92v7.09c0,5.85-.58,7.1-3.92,7.1-2.94,0-3.92-1.25-3.92-4.44s-1-4.43-3.92-4.43c-2.16,0-3.92-1.24-3.92-2.66s-1.77-2.66-3.92-2.66c-3.53,0-3.92-1.24-3.92-9.76V35.08H43.63c-11.17,0-11.76.18-11.76,4.43,0,2.66-1.18,4.44-2.75,4.44-1.76,0-3.13,2.13-3.52,4.79-.59,4.25-1.57,5-8,5.49L.5,54.77V180.5H990.6V47.67l-4.31-.53c-3.93-.53-4.51-1.77-5.1-8.69l-.59-8.16-22.94-5.85c-12.55-3.19-24.51-6.21-26.27-6.74-3.14-.71-3.53.71-3.53,13.66V45.72H914.14V81.19h-4.91c-4.7,0-4.9-.53-4.9-10.64V60.09l-20-.54L864.14,59l-.59-7.62L863,44H837.67v8c0,7.27-6.06.79-10.57.79-4.71,0,.77,7.72.77,17.83s-.2,10.64-4.9,10.64h-4.9v23c0,19.33-.4,23.06-2.94,23.06s-2.94-3.9-2.94-23.94-.4-23.94-3-23.94S806.3,75,806.3,50.16c0-24.12-.39-29.27-2.74-29.27-1.57,0-3.92-2.66-5.1-6C794,2.45,777.29-.92,766.9,8.3c-3.14,2.84-5.69,6.92-5.69,8.87,0,2.13-1.18,3.72-2.94,3.72-2.55,0-2.94,4.44-2.94,29.09V79.24l-6.28.53c-5.88.53-6.47,1.06-7,7.09-.59,5.68-1.38,6.74-5.1,6.74-3.33,0-5.3-1.59-7.06-5.14-1.76-4.08-3.72-5.5-8.43-5.85-5.69-.53-6.27-1.07-6.27-6.74,0-4.26-1.18-6.56-3.34-7.45a4,4,0,0,1-2.55-5c.4-2.31-.19-3.55-2.15-3.55-1.57,0-2.55.53-2.55,1.24,1.17,6.92-.2,7.63-13.92,7.63H676.9V83h-39L635,88.11c-2.16,3.54-4.51,5-8,5H622V47.5h-4.9c-3.53,0-4.91-.89-4.91-3.55,0-2-1.37-3.55-2.94-3.55a2.89,2.89,0,0,1-2.94-2.66c0-1.77-2-2.66-6.66-2.66-6.67,0-6.87-.18-7.85-9.4-.78-5-1.37-12.77-1.76-17.2l-.39-8Z"/></g></g></svg>