<svg xmlns="http://www.w3.org/2000/svg" xmlns:xlink="http://www.w3.org/1999/xlink" viewBox="0 0 990.1 231.44"><defs><style>.cls-1{fill-rule:evenodd;fill:url(#linear-gradient);}</style><linearGradient id="linear-gradient" x1="495.05" y1="231.44" x2="495.05" gradientUnits="userSpaceOnUse"><stop offset="0" stop-color="#4b3d60"/><stop offset="0.14" stop-color="#4f3e60"/><stop offset="0.3" stop-color="#5c405f"/><stop offset="0.45" stop-color="#70445d"/><stop offset="0.6" stop-color="#8d495b"/><stop offset="0.76" stop-color="#b35058"/><stop offset="0.91" stop-color="#e05955"/><stop offset="1" stop-color="#fd5e53"/></linearGradient></defs><title>Asset 3layer3</title><g id="Layer_2" data-name="Layer 2"><g id="Layer_1-2" data-name="Layer 1"><path class="cls-1" d="M546.66,9.65l-9.53,9.53V52.1c0,18.07-.37,41.34-.87,51.61-.74,18-.86,18.81-3.34,18.81-1.36,0-5.57-3.09-9.65-7l-7.18-7v-14c0-8.54-.5-14-1.24-14s-1.24-1.37-1.24-3.1-.86-3.46-1.85-3.84-1.86-2.35-1.86-5c0-2.35-.49-4.2-1.24-4.2s-1.23-2-1.23-4.34c0-4.08-.25-4.33-4.34-4.33s-4.33.25-4.33,4.21c0,2.35-.49,4.7-1.24,5.08s-1.23,2.35-1.23,4.45-.5,3.59-1.24,3.59-1.24,6.31-1.24,16.58c0,15.35-.12,16.71-2.35,17.45-1.48.38-2.6,2.11-2.85,4.09-.24,2.35-1.23,3.46-3,3.71a12.11,12.11,0,0,0-5.57,3.47c-1.48,1.61-3.21,3-3.83,3s-1-8.42-1-18.57c0-11.51-.5-18.56-1.24-18.56s-1.24-.87-1.24-1.86c0-1.24-1.36-1.85-4.33-1.85s-4.33.61-4.33,1.73c0,.86-1.11,2-2.48,2.35-2.22.62-2.47,1.73-2.47,11.26v10.65h-3.71c-3.47,0-3.72-.25-3.72-5,0-4.46-.37-5-3.09-5a8,8,0,0,0-8.05,7.68c0,3.34-.24,3.46-5.94,3.46-5.07,0-6.56-.62-9.9-4.08-2.23-2.23-4-5.32-4-6.68s-1.36-4.34-3.09-6.32-3.1-4.58-3.1-5.69-1.11-2-3.09-2-3.09-.74-3.09-1.86-1.37-1.85-4.34-1.85-4.33.62-4.33,1.85a1.93,1.93,0,0,1-2,1.86c-1.48,0-1.85,1.24-1.73,5.82.49,13,0,16.46-1.86,16.46-1.36,0-1.85,1.36-1.85,4.7,0,3.71-.87,5.57-4.33,8.91L383.66,123V79.21h-5.57c-5.07,0-5.57-.25-5.57-3.1S372.15,73,364.85,73c-6.68,0-8.17.49-11.14,3.34-3.34,3.22-3.46,3.59-3.46,17.2,0,15.6-.5,17.83-3.84,17.83a11.85,11.85,0,0,0-4.58,1.11,30.38,30.38,0,0,1-4.21,1.86c-1.61.49-2.22,2-2.22,5.07v4.33H323V105.2h-8.66V47h-7.18c-10,0-11.39,1.73-11.39,14v9.53h-7.42V17.33H282.3c-6.06,0-6.19,0-6.56-4.21l-.37-4.33-8.29,8-8.42,7.92V104H250V96.53c0-4.08-.5-7.42-1.24-7.42s-1.24-4.58-1.24-11.14c0-10.89-.12-11.14-3-11.14A6.69,6.69,0,0,1,240.1,65c-1.73-2.11-10.15-2.48-13.74-.62-2.1,1.23-2.35,2.72-2.35,16.7V96.53h-9.9v14.86H200.5V48.27h-8.05c-7.55,0-8.17.24-9.28,3.09-.62,1.73-1.73,3.1-2.48,3.1s-1.23,10.64-1.23,30.94c0,30.07-.13,30.94-2.48,30.94-2,0-2.48.86-2.48,3.71,0,3.46-.37,3.71-4.33,3.71-4.33,0-4.33,0-4.33-5.57,0-4.08-.49-5.57-1.85-5.57s-1.86-1.61-1.86-7.55c0-6.43-.37-7.67-2.48-8.16-1.61-.38-2.47-1.74-2.47-3.59s-.74-3-1.86-3-1.85-1.12-1.85-2.48c0-2.1-.87-2.47-5.57-2.47-4.09,0-5.57.49-5.57,1.85,0,1.12-1.12,1.86-3.1,1.86-3,0-3.09.37-3.09,7.42S136,104,133,104s-3-.37-3.34-8.42l-.37-8.29-4.45-.37c-2.85-.25-4.95.25-6.07,1.49-.86,1.23-3.46,2-6.31,2h-4.83v14.23c0,13.37-.12,14.23-2.47,14.23a2.23,2.23,0,0,0-2.48,2.48c0,2.22-.86,2.47-8.66,2.47H85.4V107.05c0-9.15-.5-16.7-1.12-16.7s-1.36-1.12-1.73-2.48c-.87-3.46-7-3.46-7.92,0-.37,1.36-1.36,2.48-2.23,2.48-2.23,0-3,3.83-4,19.43l-.74,14H58.17V111.39H44.55V91.21c0-18.56-.12-20.29-2.47-22.27-3.22-2.73-9.9-2.85-9.9-.25a1.9,1.9,0,0,1-1.86,1.85c-1.48,0-1.85,2.23-1.85,13v13H19.8v13.74c0,13.49,0,13.62-2.72,13.24s-2.85-.86-3.22-16.83l-.37-16.33h-3c-1.73,0-3.09.49-3.09,1.23s-.87,1.24-1.86,1.24c-1.61,0-1.86,2.6-1.86,15.47s-.24,15.47-1.85,15.47S0,130.57,0,177.6v53.84H990.1V96.53H979v27.36l-5.82-.38-5.94-.37-.37-25.74-.25-25.62H962.5a9.06,9.06,0,0,0-6.81,2.85C953.22,77.23,953,78.84,953,92s-.25,14.48-2.23,14.48c-3.09,0-6.43,3.83-6.43,7.3,0,1.73-.62,2.6-1.49,2.35-1.11-.37-1.73-5.08-2-16.34L940.47,84l-4.58.38c-4.45.37-4.58.49-4.95,5.57-.37,5.32-.37,5.32-5.32,5.32h-4.83V80.45c0-12.38-.25-14.86-1.85-14.86a1.9,1.9,0,0,1-1.86-1.85c0-1-1.11-1.86-2.48-1.86a2.22,2.22,0,0,0-2.47,2.48,2.22,2.22,0,0,1-2.48,2.47c-2.35,0-2.47,1-2.72,28.1l-.37,28.21-9.53.37-9.65.38V113.24c0-10.39,0-10.52-3.1-10.52-2.84,0-3-.37-3.34-9l-.37-8.91-6.44-.37L867.7,84l-.37,17.7c-.37,16.71-.5,17.7-2.85,17.7s-2.48-1-2.85-9.28c-.24-5.08-1-9.9-1.73-10.77s-3.46-1.61-6.06-1.61H849v-21h-9.9V88.37c0,6.56-.5,12.13-1.24,12.5s-1.24,3.46-1.24,6.93v6.06h-8.54l-.37-11.51L827.35,91l-4.58-.38c-4.08-.37-4.7,0-4.7,2.11s-.74,2.6-3.71,2.6h-3.72v18.56H802.1l-.37-10.27c-.37-10.15-.37-10.15-3.83-10.52a11.51,11.51,0,0,0-6.44,1.48,13.49,13.49,0,0,1-6.56,2c-4.08,0-7.67,3.35-7.67,7.18,0,2.23-.74,2.73-4.33,2.73h-4.34v-21H753.84l-.37,6.43-.38,6.56-5.19.37-5.2.37-.37,8.3-.37,8.29-7.06.37c-6.06.37-7.18,0-7.18-1.73,0-1.12-1.61-4-3.71-6.32-2.35-2.59-3.71-5.56-3.71-7.79,0-3.47-.25-3.72-4.95-3.72h-5v6c0,3.21-.62,6.55-1.49,7.42-4.45,4.46-12.13-1.24-12.13-8.79,0-3.71-.49-4.58-2.47-4.58-2.35,0-2.48-.86-2.48-11.13V74.26H679.46v49.5h-9.91V112.87c0-9.4-.37-11.26-2.47-13.24-2-1.73-2.48-3.84-2.48-9.28,0-8-1.36-9.9-7.05-9.9h-4.08V93.81c0,11.88-.25,13.74-2.48,15.72-2.48,2.23-2.48,2.1-2.48-4.7,0-5.2-.49-7.06-1.73-7.06-.86,0-2-1.11-2.35-2.47-.74-3-6.81-3.47-7.8-.62a3.73,3.73,0,0,1-3.09,1.85c-2.1,0-2.35,1.12-2.35,13.62v13.61h-9.9V107.67c0-12.37-.37-16.09-1.61-16.09-.87,0-3.47-2-5.82-4.33-3.09-3.22-5.2-4.33-8.29-4.33-2.85,0-4.08.62-4.08,1.86s-1.12,1.85-3.1,1.85c-2.47,0-3.09.62-3.09,3.1,0,2.72-.5,3.09-4.21,3.09-3.09,0-4.33.62-4.83,2.48a3.12,3.12,0,0,1-2.6,2.47c-1.73,0-2,2-2,13.12v13l-5.81-.38-5.94-.37-.38-10.52c-.24-5.81-.86-11-1.48-11.63s-1.24-4-1.24-7.18V87.87h-8.66V43.94c0-24.14-.37-43.94-1-43.94S552,4.33,546.66,9.65Z"/></g></g></svg>