<svg xmlns="http://www.w3.org/2000/svg" xmlns:xlink="http://www.w3.org/1999/xlink" viewBox="0 0 998.48 125.54"><defs><style>.cls-1{fill-rule:evenodd;fill:url(#linear-gradient);}</style><linearGradient id="linear-gradient" x1="499.24" x2="499.24" y2="125.54" gradientUnits="userSpaceOnUse"><stop offset="0" stop-color="#152852"/><stop offset="1" stop-color="#08183a"/></linearGradient></defs><title>Asset 1layer1</title><g id="Layer_2" data-name="Layer 2"><g id="Layer_1-2" data-name="Layer 1"><path class="cls-1" d="M128.44,98.88h11.31l.49,8.4.48,18.26H279.51V110.35c0-4.2.81-5.82,3.23-6.62,6.14-1.94,9.69.48,9.69,6.62v15.19H620.09l1-13.74c.65-2.26.65-4.84.16-5.65-1.62-2.59,2.26-8.08,5.66-8.08,6.62,0,8.07,1.78,8.07,9.86v17.61H773.9V110.19c0-4.69.65-5.82,4-6.63,5.33-1.29,8.89,1.78,8.89,7.6v14.38h142l.49-18.1c.48-8.24.64-8.56,5.33-8.56s4.85.32,5.33,8.56l.48,18.1h58V2.59l-14.54,9.85c-7.92,5.33-14.87,9.69-15.19,9.69-.49,0-.49-1.93,0-4.52.81-4.36.81-4.36-7.27-4.36H953.4l1,9.21,1,9.05-17,11.14-17,11.15-10.34-4.68-10.34-4.53L893.62,48c-5.65,2.74-6.79,2.9-6.14.8.81-1.94-.16-2.42-4.52-2.42-5.33,0-5.66.32-5.66,5.17,0,4.68-1,5.82-8.4,10-4.68,2.58-7.59,3.55-6.62,2.26,1.61-1.78-.49-4.53-11.15-14.22-21.33-19.55-18.74-18.42-28.92-12.28-4.85,2.91-12.28,7.27-16.8,9.7l-8.08,4.52,5.33-4.69c3.39-2.9,4.68-5.17,3.72-6.14-2.11-2.26-3.07-21.81-1-22,1,0,0-.81-1.78-1.78-2.43-1.13-4.53-1.13-6.46.17-2.75,1.45-2.75,1.61,1,1.77,2.42,0,3.23.49,2.1,1.3-1,.64-2.1,3.07-2.43,5.49-.48,4.36-.81,4-8.4-5.33l-7.75-9.86-15.19,15c-11.8,11.63-15.67,14.86-17.61,13.57L731.09,25.69l-15.35-12L708,18.26c-4.2,2.42-14.38,9-22.46,14.86-8.24,5.66-15,10-15,9.53,0-.32,5.81-5.17,12.92-10.66s12.93-10.66,12.93-11.31c0-.81-4.69-4.52-10.34-8.24l-10.5-6.79-9.7,7c-9,6.3-11.79,9.53-8.56,9.53.65,0,2.91,1.46,5.17,3.24,2.91,2.26.81,1.77-7.27-1.78-6.14-2.75-20.84-9.21-32.48-14.38L601.67,0,586,7l-15.67,6.94v-4c0-2.1.81-3.88,1.61-3.88,1,0,1.62-1.13,1.62-2.43,0-1.93-2.1-2.42-9.7-2.42-7.43,0-9.69.49-9.69,2.26a4.09,4.09,0,0,0,1.45,3.23,4.18,4.18,0,0,1,1,3.88,36.17,36.17,0,0,0-.64,6.14c-.16,2.91-3.72,5-19.07,12-23.26,10.18-24.72,10.82-20.68,7.59,3.23-2.42,3.07-2.75-4.52-17.93L504.09,2.75l-14.55,9.69c-7.91,5.33-14.86,9.69-15.18,9.69-.49,0-.49-1.93,0-4.52.81-4.36.81-4.36-7.11-3.88l-8.08.65.81,8.56,1,8.57L443.82,42.65,426.86,54l-10.18-4.68-10.34-4.69-6.79,3.23c-5.33,2.59-6.62,2.75-5.81,1,.64-1.94-.49-2.42-5-2.42-5.5,0-5.82.32-5.82,5.17,0,4.68-1,5.82-8.4,10-4.69,2.58-7.59,3.55-6.46,2.26,1.61-2.1-.33-4.53-12.12-15.19C335.25,30.05,338,31.18,327.82,37.32c-4.69,2.91-12.28,7.27-16.81,9.7l-8.07,4.52,5.33-4.69c3.39-2.9,4.68-5.17,3.71-6.14-2.1-2.26-3.07-21.81-1-22,1,0,0-.81-1.77-1.78-2.43-1.13-4.53-1.13-6.47.17-1.77,1-2.1,1.77-1,1.77s1.94,2.27,1.94,5.82v5.82l-8.4-10-8.24-10L272.24,25.37c-10.5,10.5-15.67,14.54-17.13,13.57-1.29-.65-9.37-6.63-17.93-13.25l-15.51-12-7.92,4.53c-4.2,2.58-14.54,9.21-22.62,14.86-8.24,5.66-15,10-15,9.53,0-.32,5.81-5.17,12.92-10.66S202,21.33,202,20.68c0-.81-4.69-4.36-10.34-8.08L181.44,5.82l-10,6.94c-9,6.14-11.79,9.37-8.56,9.37.64,0,2.91,1.46,5.17,3.24s-8.24-2.27-23.43-9c-15-6.79-29.73-13.09-32.31-14.22C107.76.16,106.15.48,91.61,7L75.94,13.89v-4c0-2.1.8-3.88,1.61-3.88,1,0,1.62-1.13,1.62-2.43,0-1.93-2.1-2.42-9.7-2.42-7.43,0-9.69.49-9.69,2.26a4.56,4.56,0,0,0,1.62,3.4c2.26,1.45,1.93,11.63-.33,13.24-1.13.65-12.92,6.14-26.33,12L10.5,42.65,10,79.33,0,125.54H127.48"/></g></g></svg>