<svg xmlns="http://www.w3.org/2000/svg" xmlns:xlink="http://www.w3.org/1999/xlink" viewBox="0 0 990.1 180"><defs><style>.cls-1{fill-rule:evenodd;fill:url(#linear-gradient);}</style><linearGradient id="linear-gradient" x1="495.05" y1="180" x2="495.05" gradientUnits="userSpaceOnUse"><stop offset="0" stop-color="#152852"/><stop offset="0.27" stop-color="#192a53"/><stop offset="0.54" stop-color="#262e56"/><stop offset="0.83" stop-color="#3a365c"/><stop offset="1" stop-color="#4b3d60"/></linearGradient></defs><title>Asset 25layer5</title><g id="Layer_2" data-name="Layer 2"><g id="Layer_1-2" data-name="Layer 1"><path class="cls-1" d="M587.79,9.75A147.33,147.33,0,0,0,586.22,27v7.62h-7.85c-5.68,0-7.84.71-7.84,2.66a2.88,2.88,0,0,1-2.94,2.66c-1.57,0-2.94,1.6-2.94,3.55,0,2.3-1.37,3.55-3.92,3.55-3.73,0-3.92,1.24-3.92,30.14,0,25.54-.39,30.15-2.94,30.15-2.16,0-2.94-2-2.94-6.74,0-9.4-4.91-12.77-18.63-12.77-10.19,0-10.78-.17-10.78-4.43,0-3.72-1-4.43-5.88-4.43-5.49,0-5.89-.54-5.89-6.21,0-3.37-.78-6.21-2-6.21-1,0-2,2.84-2,6.21s-.78,6.21-2,6.21c-1,0-2-1.25-2-2.66a3,3,0,0,0-5.88,0c0,1.95-2.35,2.66-9.8,2.66-9.22,0-9.81.35-9.81,4.43,0,3.19-1,4.43-3.92,4.43-2.15,0-3.92.71-3.92,1.78,0,.88-2.16,1.77-4.9,1.77-3.92,0-4.9-.89-4.9-4.43,0-3.9-.79-4.44-6.67-4.44-3.72,0-7.45-.88-8-1.77-.58-1.06-7.25-1.77-14.9-1.77H415.65V60.3c0-10.64-.79-18.63-2-18.63-2.35,0-11-7.8-13.72-12.59-3.33-5.49-11.37-7.62-16.86-4.25-2.55,1.42-4.71,3.9-4.71,5.32s-1.76,3.37-3.92,4.43-3.92,3-3.92,4.43-1.76,2.66-3.92,2.66c-3.72,0-3.92,1.25-3.92,33.7,0,28.73-.39,33.69-2.94,33.69-2.35,0-2.94-3.37-2.94-20.39V68.28h-4.9c-4.12,0-4.91-.89-4.91-5.32,0-5-.39-5.32-7.64-5.32-4.31,0-8.24-.89-8.63-2.31q-1.17-2.65-1.17,0c-.2,1.6-3.73,2.31-11,2.31-10.59,0-10.79,0-10.79,5.32v5.32H274.48v7.27c0,5.85-.59,7.09-3.33,6.56-4.31-.71-5.88-12.59-2.55-18.09,1.18-2.31,2-10.11,1.57-18.8l-.59-15.07H234.29l-.59,11.52-.59,11.53-14.5,5-14.71,5v8c0,5.68-.78,7.81-2.94,7.81-2,0-2.94-1.78-2.94-5.32,0-5-.59-5.32-7.06-5.32H183.9l.59-12.06.79-11.89-10.4-8.68-10.39-8.87-9.21,8.33c-5.1,4.61-10.59,8.34-12.16,8.34-2.15,0-2.15.53-.39,2.13,1.37,1.24,2.35,6.74,2.35,12.23V68.1l-7.45.53-7.25.53-.59,21.64c-.78,30.15-4.31,28.37-4.31-2.13V64.73H119.6c-5.3,0-5.89-.53-5.89-5.32V54.09H78.42v7.09c0,5.85-.58,7.1-3.92,7.1-2.94,0-3.92-1.25-3.92-4.44s-1-4.43-3.92-4.43c-2.16,0-3.92-1.24-3.92-2.66S61,54.09,58.82,54.09c-3.53,0-3.92-1.24-3.92-9.76V34.58H43.13c-11.17,0-11.76.18-11.76,4.43,0,2.66-1.18,4.44-2.75,4.44-1.76,0-3.13,2.13-3.52,4.79-.59,4.25-1.57,5-8,5.49L0,54.27V180H990.1V47.17l-4.31-.53c-3.93-.53-4.51-1.77-5.1-8.69l-.59-8.16-22.94-5.85c-12.55-3.19-24.51-6.21-26.27-6.74-3.14-.71-3.53.71-3.53,13.66V45.22H913.64V80.69h-4.91c-4.7,0-4.9-.53-4.9-10.64V59.59l-20-.54-20.19-.53-.59-7.62-.59-7.45H837.17v8c0,7.27-6.06.79-10.57.79-4.71,0,.77,7.72.77,17.83s-.2,10.64-4.9,10.64h-4.9v23c0,19.33-.4,23.06-2.94,23.06s-2.94-3.9-2.94-23.94-.4-23.94-3-23.94-2.94-4.44-2.94-29.26c0-24.12-.39-29.27-2.74-29.27-1.57,0-3.92-2.66-5.1-6C793.45,2,776.79-1.42,766.4,7.8c-3.14,2.84-5.69,6.92-5.69,8.87,0,2.13-1.18,3.72-2.94,3.72-2.55,0-2.94,4.44-2.94,29.09V78.74l-6.28.53c-5.88.53-6.47,1.06-7,7.09-.59,5.68-1.38,6.74-5.1,6.74-3.33,0-5.3-1.59-7.06-5.14-1.76-4.08-3.72-5.5-8.43-5.85-5.69-.53-6.27-1.07-6.27-6.74,0-4.26-1.18-6.56-3.34-7.45a4,4,0,0,1-2.55-5c.4-2.31-.19-3.55-2.15-3.55-1.57,0-2.55.53-2.55,1.24,1.17,6.92-.2,7.63-13.92,7.63H676.4V82.46h-39l-2.94,5.15c-2.16,3.54-4.51,5-8,5h-4.9V47h-4.9c-3.53,0-4.91-.89-4.91-3.55,0-2-1.37-3.55-2.94-3.55a2.89,2.89,0,0,1-2.94-2.66c0-1.77-2-2.66-6.66-2.66-6.67,0-6.87-.18-7.85-9.4-.78-5-1.37-12.77-1.76-17.2l-.39-8Z"/></g></g></svg>