<svg xmlns="http://www.w3.org/2000/svg" xmlns:xlink="http://www.w3.org/1999/xlink" viewBox="0 0 993 163.35"><defs><style>.cls-1{fill-rule:evenodd;fill:url(#linear-gradient);}</style><linearGradient id="linear-gradient" x1="496.5" x2="496.5" y2="163.35" gradientUnits="userSpaceOnUse"><stop offset="0" stop-color="#152852"/><stop offset="1" stop-color="#08183a"/></linearGradient></defs><title>Asset 26layer6</title><g id="Layer_2" data-name="Layer 2"><g id="Layer_1-2" data-name="Layer 1"><path class="cls-1" d="M993,163.35l0-104.06V2.59l-14.61,9.85c-8,5.33-14.93,9.69-15.26,9.69s-.48-1.93,0-4.52c.81-4.36.81-4.36-7.3-4.36h-8.12l1,9.21,1,9.05-17,11.14-17,11.15-10.39-4.68-10.39-4.53L887.64,48c-5.68,2.74-6.82,2.9-6.17.8.82-1.94-.16-2.42-4.54-2.42-5.36,0-5.68.32-5.68,5.17,0,4.68-1,5.82-8.44,10-4.71,2.58-7.63,3.55-6.66,2.26,1.63-1.78-.48-4.53-11.19-14.22-21.43-19.55-18.83-18.42-29.06-12.28C811,40.23,803.57,44.59,799,47l-8.11,4.52,5.35-4.69c3.41-2.9,4.71-5.17,3.74-6.14-2.11-2.26-3.09-21.81-1-22,1,0,0-.81-1.78-1.78-2.44-1.13-4.55-1.13-6.49.17-2.76,1.45-2.76,1.61,1,1.77,2.43,0,3.25.49,2.11,1.3-1,.64-2.11,3.07-2.44,5.49-.48,4.36-.81,4-8.43-5.33l-7.8-9.86-15.25,15c-11.85,11.63-15.75,14.86-17.69,13.57L724.36,25.69l-15.42-12-7.79,4.53c-4.22,2.42-14.44,9-22.56,14.86-8.27,5.66-15.09,10-15.09,9.53,0-.32,5.84-5.17,13-10.66s13-10.66,13-11.31c0-.81-4.71-4.52-10.39-8.24L668.53,5.65l-9.74,7c-9.09,6.3-11.85,9.53-8.6,9.53.65,0,2.92,1.46,5.19,3.24,2.93,2.26.82,1.77-7.3-1.78-6.17-2.75-20.94-9.21-32.62-14.38L594.36,0,578.61,7l-15.74,6.94v-4c0-2.1.81-3.88,1.62-3.88,1,0,1.63-1.13,1.63-2.43,0-1.93-2.11-2.42-9.74-2.42-7.47,0-9.74.49-9.74,2.26a4.07,4.07,0,0,0,1.46,3.23,4.18,4.18,0,0,1,1,3.88,36.17,36.17,0,0,0-.64,6.14c-.17,2.91-3.74,5-19.16,12-23.37,10.18-24.83,10.82-20.77,7.59,3.24-2.42,3.08-2.75-4.55-17.93L496.33,2.75l-14.61,9.69c-8,5.33-14.93,9.69-15.26,9.69s-.48-1.93,0-4.52c.81-4.36.81-4.36-7.14-3.88l-8.11.65.81,8.56,1,8.57-17.2,11.14L418.74,54l-10.22-4.68-10.39-4.69-6.81,3.23c-5.36,2.59-6.66,2.75-5.85,1,.65-1.94-.48-2.42-5-2.42-5.52,0-5.84.32-5.84,5.17,0,4.68-1,5.82-8.44,10-4.71,2.58-7.63,3.55-6.49,2.26,1.62-2.1-.33-4.53-12.18-15.19-20.77-18.58-18-17.45-28.24-11.31-4.7,2.91-12.33,7.27-16.88,9.7l-8.11,4.52,5.35-4.69c3.41-2.9,4.71-5.17,3.74-6.14-2.11-2.26-3.09-21.81-1-22,1,0,0-.81-1.78-1.78-2.44-1.13-4.55-1.13-6.49.17-1.79,1-2.11,1.77-1,1.77s1.95,2.27,1.95,5.82v5.82l-8.44-10-8.28-10L263.42,25.37c-10.55,10.5-15.74,14.54-17.2,13.57-1.3-.65-9.42-6.63-18-13.25l-15.58-12-8,4.53c-4.22,2.58-14.61,9.21-22.73,14.86-8.27,5.66-15.09,10-15.09,9.53,0-.32,5.84-5.17,13-10.66s13-10.66,13-11.31c0-.81-4.71-4.36-10.39-8.08L172.2,5.82l-10.06,6.94c-9.09,6.14-11.85,9.37-8.6,9.37.65,0,2.92,1.46,5.19,3.24s-8.27-2.27-23.53-9C120.1,9.53,105.34,3.23,102.74,2.1,98.19.16,96.57.48,82,7L66.22,13.89v-4C66.22,7.76,67,6,67.84,6c1,0,1.63-1.13,1.63-2.43,0-1.93-2.11-2.42-9.74-2.42-7.47,0-9.74.49-9.74,2.26a4.56,4.56,0,0,0,1.62,3.4c2.27,1.45,2,11.63-.32,13.24-1.14.65-13,6.14-26.46,12L.49,42.65,0,79.33l.49,84"/></g></g></svg>