<svg xmlns="http://www.w3.org/2000/svg" xmlns:xlink="http://www.w3.org/1999/xlink" viewBox="0 0 994 163.86"><defs><style>.cls-1{stroke:#fff;stroke-miterlimit:10;fill-rule:evenodd;fill:url(#linear-gradient);}</style><linearGradient id="linear-gradient" x1="497" y1="163.85" x2="497" y2="0.5" gradientUnits="userSpaceOnUse"><stop offset="0" stop-color="#fff"/><stop offset="0.22" stop-color="#cdcdcd"/><stop offset="0.48" stop-color="#969696"/><stop offset="0.71" stop-color="#6e6e6e"/><stop offset="0.89" stop-color="#565656"/><stop offset="1" stop-color="#4d4d4d"/></linearGradient></defs><title>Asset 44layer7</title><g id="Layer_2" data-name="Layer 2"><g id="Layer_1-2" data-name="Layer 1"><path class="cls-1" d="M993.5,163.85l0-104.06V3.09l-14.61,9.85c-8,5.33-14.93,9.69-15.26,9.69s-.48-1.93,0-4.52c.81-4.36.81-4.36-7.3-4.36h-8.12l1,9.21,1,9-17,11.14-17,11.15-10.39-4.68-10.39-4.53-7.14,3.4c-5.68,2.74-6.82,2.9-6.17.8.82-1.94-.16-2.42-4.54-2.42-5.36,0-5.68.32-5.68,5.17,0,4.68-1,5.82-8.44,10-4.71,2.58-7.63,3.55-6.66,2.26,1.63-1.78-.48-4.53-11.19-14.22C824,30.55,826.63,31.68,816.4,37.82c-4.87,2.91-12.33,7.27-16.88,9.7L791.41,52l5.35-4.69c3.41-2.9,4.71-5.17,3.74-6.14-2.11-2.26-3.09-21.81-1-22,1,0,0-.81-1.78-1.78-2.44-1.13-4.55-1.13-6.49.17-2.76,1.45-2.76,1.61,1,1.77,2.43,0,3.25.49,2.11,1.3-1,.64-2.11,3.07-2.44,5.49-.48,4.36-.81,4-8.43-5.33L775.66,11,760.41,26c-11.85,11.63-15.75,14.86-17.69,13.57L724.86,26.19l-15.42-12-7.79,4.53c-4.22,2.42-14.44,9-22.56,14.86-8.27,5.66-15.09,10-15.09,9.53,0-.32,5.84-5.17,13-10.66s13-10.66,13-11.31c0-.81-4.71-4.52-10.39-8.24L669,6.15l-9.74,7c-9.09,6.3-11.85,9.53-8.6,9.53.65,0,2.92,1.46,5.19,3.24,2.93,2.26.82,1.77-7.3-1.78-6.17-2.75-20.94-9.21-32.62-14.38L594.86.5l-15.75,7-15.74,6.94v-4c0-2.1.81-3.88,1.62-3.88,1,0,1.63-1.13,1.63-2.43,0-1.93-2.11-2.42-9.74-2.42-7.47,0-9.74.49-9.74,2.26a4.07,4.07,0,0,0,1.46,3.23,4.18,4.18,0,0,1,1,3.88,36.17,36.17,0,0,0-.64,6.14c-.17,2.91-3.74,5-19.16,12C506.4,39.28,504.94,39.92,509,36.69c3.24-2.42,3.08-2.75-4.55-17.93L496.83,3.25l-14.61,9.69c-8,5.33-14.93,9.69-15.26,9.69s-.48-1.93,0-4.52c.81-4.36.81-4.36-7.14-3.88l-8.11.65.81,8.56,1,8.57-17.2,11.14L419.24,54.46,409,49.78l-10.39-4.69-6.81,3.23c-5.36,2.59-6.66,2.75-5.85,1,.65-1.94-.48-2.42-5-2.42-5.52,0-5.84.32-5.84,5.17,0,4.68-1,5.82-8.44,10-4.71,2.58-7.63,3.55-6.49,2.26,1.62-2.1-.33-4.53-12.18-15.19-20.77-18.58-18-17.45-28.24-11.31-4.7,2.91-12.33,7.27-16.88,9.7L294.76,52l5.35-4.69c3.41-2.9,4.71-5.17,3.74-6.14-2.11-2.26-3.09-21.81-1-22,1,0,0-.81-1.78-1.78-2.44-1.13-4.55-1.13-6.49.17-1.79,1-2.11,1.77-1,1.77s1.95,2.27,1.95,5.82V31l-8.44-10-8.28-10L263.92,25.87c-10.55,10.5-15.74,14.54-17.2,13.57-1.3-.65-9.42-6.63-18-13.25l-15.58-12-8,4.53C201,21.34,190.56,28,182.44,33.62c-8.27,5.66-15.09,10-15.09,9.53,0-.32,5.84-5.17,13-10.66s13-10.66,13-11.31c0-.81-4.71-4.36-10.39-8.08L172.7,6.32l-10.06,6.94c-9.09,6.14-11.85,9.37-8.6,9.37.65,0,2.92,1.46,5.19,3.24s-8.27-2.27-23.53-9C120.6,10,105.84,3.73,103.24,2.6,98.69.66,97.07,1,82.46,7.45L66.72,14.39v-4c0-2.1.81-3.88,1.62-3.88,1,0,1.63-1.13,1.63-2.43,0-1.93-2.11-2.42-9.74-2.42-7.47,0-9.74.49-9.74,2.26a4.56,4.56,0,0,0,1.62,3.4c2.27,1.45,2,11.63-.32,13.24-1.14.65-13,6.14-26.46,12L1,43.15.5,79.83l.49,84"/></g></g></svg>