<svg xmlns="http://www.w3.org/2000/svg" xmlns:xlink="http://www.w3.org/1999/xlink" viewBox="0 0 990.1 276.28"><defs><style>.cls-1{fill-rule:evenodd;fill:url(#linear-gradient);}</style><linearGradient id="linear-gradient" x1="495.05" y1="276.28" x2="495.05" gradientUnits="userSpaceOnUse"><stop offset="0" stop-color="#fc9c54"/><stop offset="0.23" stop-color="#fca056"/><stop offset="0.47" stop-color="#fdad5b"/><stop offset="0.72" stop-color="#fec164"/><stop offset="0.96" stop-color="#ffde71"/><stop offset="1" stop-color="#ffe373"/></linearGradient></defs><title>Asset 5layer5</title><g id="Layer_2" data-name="Layer 2"><g id="Layer_1-2" data-name="Layer 1"><path class="cls-1" d="M182.65,6.14a94.44,94.44,0,0,0,10.91,11.4c6.19,5.08,6.32,5.21,9.66,3.23s3.6-1.86,7.56,2.23c2.23,2.35,5,4.21,6.2,4.21s2.85,2.35,4.71,7.43C224,40.84,225.53,43,231,47c4.71,3.47,7.31,6.44,8.92,10.41,2.23,5.2,4.22,7.43,4.22,4.46,0-2.73,4-1,5.95,2.47,1.36,2.36,3.09,3.72,4.83,3.72,1.48,0,4.33,1.37,6.32,3.1s4.83,3.1,6.32,3.1,4.58,1.86,7.06,4c3.84,3.47,5.58,4.09,10.91,4.09,12.88.25,16.23,1.61,20.32,8.18,3,4.71,4.83,6.2,9,7.44a14.28,14.28,0,0,1,8.43,6.32c2.6,3.71,3.84,4.58,6.07,4.09s4,.37,7.56,4.46c4.21,4.58,5,5,7.31,3.47,2-1.24,2.85-1.24,4.34,0s2.35.62,4.46-4.09c1.74-4.09,4-6.57,8.55-9.42,5-3,6.69-5.08,9.42-11.15,2.1-4.71,4.09-7.44,5.45-7.44,1.12,0,3.84-1.73,6-3.84,3.84-3.72,4.09-3.84,6.81-1.86,4.34,3,7.81,2.48,10.79-1.73,1.73-2.36,4-3.72,5.82-3.72s4.58-1.86,8.18-6.2c2.85-3.34,5.82-6.19,6.57-6.19s3.22,2.48,5.57,5.45c3.1,4,5.33,5.58,8.43,6.07,3.84.62,5.2,0,12.14-6,4.34-3.71,9.79-7.68,12-8.79a35.62,35.62,0,0,0,6.57-4.34,35.73,35.73,0,0,1,7.43-4.34,72.32,72.32,0,0,0,10-5.45l5.08-3.59,5.21,3.59a35.3,35.3,0,0,0,10,4.21c2.48.37,5.33,1.61,6.2,2.6,1.73,2.11,6.57,2.48,10,.5,1.86-1,3.34-.74,6.56,1.24,2.24,1.49,5.21,2.6,6.45,2.6s3.72,2,5.45,4.34a15.64,15.64,0,0,0,8.55,5.82,20.78,20.78,0,0,1,8.8,5.45c2.35,2.73,4,3.6,5.08,2.85,2.6-1.61,3.47-1.36,7.06,2.24,4.71,4.7,8.31,4.7,18,.12l8.43-4.09,7.68,4A68.25,68.25,0,0,0,612.65,80c5.33,1.24,30.11,13.75,38.16,19.21,6.2,4.21,7.44,4.7,10.16,3.47,4.22-2,6.82-.25,40.77,27,15.49,12.51,28.75,22.68,29.37,22.68s1.24,1.36,1.24,3.09c0,4,.74,3.85,6.69-.62s8.06-4.58,12.64,0c2.11,2.11,5,3.72,6.82,3.72s4.71,1.61,7.18,4.21c4.34,4.47,8.56,5.95,11.65,4.22,1.12-.62,3.35-.37,5.46.37a21.48,21.48,0,0,0,6.56,1.36c2.48,0,3.84,1.37,6.82,6.32s5.2,7.19,9.91,9.67c4.46,2.23,7.07,4.58,9.17,8.55,1.74,3,3.22,4.83,3.6,4,.62-1.85,4.33-1.85,6.19,0,1.12,1.12,2,1,3.59-.49a42.27,42.27,0,0,1,7.81-4.71,95.47,95.47,0,0,0,10.78-6.57l5.21-3.72,5,4c2.73,2.23,6.82,4.21,8.93,4.46a14.57,14.57,0,0,1,6.81,3.22c2.73,2.48,3.35,2.6,8.43,1.12s5.82-1.24,9.17,1.11c2.1,1.37,4.71,2.61,6.07,2.61s3.72,2.23,5.58,4.95c2.35,3.35,4.83,5.33,8.42,6.32a20,20,0,0,1,8.3,5.33c2.36,2.85,4.09,3.72,6.57,3.47s4.09.5,6.2,3.1c1.48,1.86,3.34,3.47,4.09,3.47,1.73,0,54.15,48.94,54.15,50.43,0,.5-222.8,1-495,1H0V196.36c0-71.5.25-80.05,2-80.8a3.41,3.41,0,0,1,3.35.75c2.11,2.1,2.72,1.73,8.18-4,4.46-4.58,5.33-5.08,7.43-3.72s2.6,1.24,3.22-.74c1-3.22,5.58-7.19,11.9-10.41a26.71,26.71,0,0,0,8.67-7.56c2.61-3.84,4.47-5.2,9.3-6.44a29.15,29.15,0,0,1,10.53-1c3.72.49,5.21,0,9.67-3.72,3-2.48,6.69-4.46,8.3-4.46s4.58-1.37,6.44-3.1,4.59-3.1,6.07-3.1c1.86,0,3.47-1.24,4.71-3.72,2-4,4.09-4.7,6.57-2.23,1.12,1.12,1.61.87,2.23-1,3.1-8.8,4.46-10.53,10.16-14.12,5.33-3.23,6.69-5,9.3-11.53,2-5.08,3.84-7.8,5.33-8s4.08-2.36,6.07-4.84l3.71-4.33L147,20.52l3.84,2.23,5.2-4.34A96.9,96.9,0,0,0,166.79,7c4.59-5.82,6.07-6.94,7.44-5.7,1.24,1,1.73,1,1.73,0C176-1.42,178.07.07,182.65,6.14Z"/></g></g></svg>