<svg xmlns="http://www.w3.org/2000/svg" xmlns:xlink="http://www.w3.org/1999/xlink" viewBox="0 0 990.1 320"><defs><style>.cls-1{fill-rule:evenodd;fill:url(#linear-gradient);}</style><linearGradient id="linear-gradient" x1="495.05" y1="320" x2="495.05" gradientUnits="userSpaceOnUse"><stop offset="0" stop-color="#fc9c54"/><stop offset="0.23" stop-color="#fca056"/><stop offset="0.47" stop-color="#fdad5b"/><stop offset="0.72" stop-color="#fec164"/><stop offset="0.96" stop-color="#ffde71"/><stop offset="1" stop-color="#ffe373"/></linearGradient></defs><title>Asset 15mountain2</title><g id="Layer_2" data-name="Layer 2"><g id="Layer_1-2" data-name="Layer 1"><path class="cls-1" d="M182.65,7.12a104.89,104.89,0,0,0,10.91,13.2c6.19,5.88,6.32,6,9.66,3.73s3.6-2.15,7.56,2.58c2.23,2.73,5,4.88,6.2,4.88s2.85,2.73,4.71,8.62c2.35,7.17,3.84,9.61,9.29,14.35,4.71,4,7.31,7.46,8.92,12.05,2.23,6,4.22,8.62,4.22,5.17,0-3.16,4-1.15,5.95,2.87,1.36,2.73,3.09,4.31,4.83,4.31,1.48,0,4.33,1.58,6.32,3.59s4.83,3.58,6.32,3.58,4.58,2.16,7.06,4.6c3.84,4,5.58,4.73,10.91,4.73,12.88.29,16.23,1.87,20.32,9.48,3,5.45,4.83,7.17,9,8.61,3.72,1.29,6.2,3.44,8.43,7.32,2.6,4.3,3.84,5.31,6.07,4.73s4,.43,7.56,5.17c4.21,5.31,5,5.74,7.31,4,2-1.44,2.85-1.44,4.34,0s2.35.72,4.46-4.74c1.74-4.73,4-7.6,8.55-10.9,5-3.45,6.69-5.89,9.42-12.92,2.1-5.46,4.09-8.61,5.45-8.61,1.12,0,3.84-2,6-4.45,3.84-4.31,4.09-4.45,6.81-2.16,4.34,3.45,7.81,2.87,10.79-2,1.73-2.72,4-4.3,5.82-4.3s4.58-2.15,8.18-7.18c2.85-3.87,5.82-7.17,6.57-7.17s3.22,2.87,5.57,6.31c3.1,4.59,5.33,6.46,8.43,7,3.84.72,5.2,0,12.14-6.88,4.34-4.31,9.79-8.9,12-10.2a35.22,35.22,0,0,0,6.57-5,35,35,0,0,1,7.43-5,69.82,69.82,0,0,0,10-6.32L487.86,46l5.21,4.16a32.79,32.79,0,0,0,10,4.88c2.48.43,5.33,1.87,6.2,3,1.73,2.44,6.57,2.87,10,.57,1.86-1.15,3.34-.86,6.56,1.44,2.24,1.72,5.21,3,6.45,3s3.72,2.3,5.45,5a15.84,15.84,0,0,0,8.55,6.75,20.54,20.54,0,0,1,8.8,6.31c2.35,3.16,4,4.17,5.08,3.31,2.6-1.87,3.47-1.58,7.06,2.58,4.71,5.45,8.31,5.45,18,.14l8.43-4.73,7.68,4.59a64,64,0,0,0,11.28,5.6c5.33,1.43,30.11,15.93,38.16,22.24,6.2,4.88,7.44,5.46,10.16,4,4.22-2.29,6.82-.29,40.77,31.29,15.49,14.5,28.75,26.27,29.37,26.27s1.24,1.57,1.24,3.58c0,4.6.74,4.45,6.69-.71,6.07-5.31,8.06-5.31,12.64,0,2.11,2.44,5,4.3,6.82,4.3s4.71,1.87,7.18,4.88c4.34,5.17,8.56,6.89,11.65,4.88,1.12-.72,3.35-.43,5.46.43a18.91,18.91,0,0,0,6.56,1.58c2.48,0,3.84,1.58,6.82,7.32s5.2,8.32,9.91,11.2a20.18,20.18,0,0,1,9.17,9.9c1.74,3.44,3.22,5.6,3.6,4.59.62-2.15,4.33-2.15,6.19,0,1.12,1.29,2,1.15,3.59-.57a42.23,42.23,0,0,1,7.81-5.46,93.93,93.93,0,0,0,10.78-7.6l5.21-4.31,5,4.59c2.73,2.59,6.82,4.88,8.93,5.17a13.79,13.79,0,0,1,6.81,3.73c2.73,2.87,3.35,3,8.43,1.29s5.82-1.43,9.17,1.3c2.1,1.57,4.71,3,6.07,3s3.72,2.58,5.58,5.74c2.35,3.88,4.83,6.17,8.42,7.32a19.89,19.89,0,0,1,8.3,6.17c2.36,3.3,4.09,4.31,6.57,4s4.09.57,6.2,3.59c1.48,2.15,3.34,4,4.09,4,1.73,0,54.15,56.69,54.15,58.41,0,.58-222.8,1.15-495,1.15H0V227.43c0-82.82.25-92.72,2-93.58a3.06,3.06,0,0,1,3.35.86c2.11,2.44,2.72,2,8.18-4.59,4.46-5.31,5.33-5.89,7.43-4.31s2.6,1.44,3.22-.86c1-3.73,5.58-8.32,11.9-12.06a28.29,28.29,0,0,0,8.67-8.75c2.61-4.45,4.47-6,9.3-7.46a25.46,25.46,0,0,1,10.53-1.15c3.72.57,5.21,0,9.67-4.31,3-2.87,6.69-5.17,8.3-5.17s4.58-1.57,6.44-3.58,4.59-3.59,6.07-3.59c1.86,0,3.47-1.44,4.71-4.31,2-4.59,4.09-5.45,6.57-2.58,1.12,1.29,1.61,1,2.23-1.15,3.1-10.19,4.46-12.2,10.16-16.36,5.33-3.73,6.69-5.74,9.3-13.35,2-5.88,3.84-9,5.33-9.33s4.08-2.73,6.07-5.6l3.71-5L147,23.76l3.84,2.59,5.2-5a107.6,107.6,0,0,0,10.78-13.2c4.59-6.75,6.07-8,7.44-6.6,1.24,1.15,1.73,1.15,1.73,0C176-1.64,178.07.08,182.65,7.12Z"/></g></g></svg>