<svg xmlns="http://www.w3.org/2000/svg" xmlns:xlink="http://www.w3.org/1999/xlink" viewBox="0 0 990.1 276.28"><defs><style>.cls-1{fill-rule:evenodd;fill:url(#linear-gradient);}</style><linearGradient id="linear-gradient" x1="495.05" y1="276.28" x2="495.05" gradientUnits="userSpaceOnUse"><stop offset="0" stop-color="#fd5e53"/><stop offset="0.25" stop-color="#fd6253"/><stop offset="0.51" stop-color="#fd6f53"/><stop offset="0.77" stop-color="#fc8354"/><stop offset="1" stop-color="#fc9c54"/></linearGradient></defs><title>Asset 4layer4</title><g id="Layer_2" data-name="Layer 2"><g id="Layer_1-2" data-name="Layer 1"><path class="cls-1" d="M807.44,6.14a93.58,93.58,0,0,1-10.9,11.4c-6.2,5.08-6.32,5.21-9.67,3.23s-3.59-1.86-7.55,2.23c-2.23,2.35-5,4.21-6.2,4.21s-2.85,2.35-4.71,7.43c-2.35,6.2-3.84,8.31-9.29,12.4-4.71,3.47-7.31,6.44-8.92,10.41C748,62.65,746,64.88,746,61.91c0-2.73-4-1-6,2.47-1.36,2.36-3.09,3.72-4.83,3.72-1.49,0-4.34,1.37-6.32,3.1s-4.83,3.1-6.32,3.1-4.58,1.86-7.06,4c-3.84,3.47-5.58,4.09-10.91,4.09-12.88.25-16.23,1.61-20.32,8.18-3,4.71-4.83,6.2-9,7.44a14.28,14.28,0,0,0-8.43,6.32c-2.6,3.71-3.84,4.58-6.07,4.09s-4,.37-7.56,4.46c-4.22,4.58-5,5-7.31,3.47-2-1.24-2.85-1.24-4.34,0s-2.35.62-4.46-4.09c-1.74-4.09-4-6.57-8.55-9.42-5-3-6.69-5.08-9.42-11.15-2.11-4.71-4.09-7.44-5.45-7.44-1.12,0-3.84-1.73-5.95-3.84-3.84-3.72-4.09-3.84-6.82-1.86-4.33,3-7.8,2.48-10.78-1.73-1.73-2.36-4-3.72-5.82-3.72s-4.59-1.86-8.18-6.2c-2.85-3.34-5.82-6.19-6.57-6.19s-3.22,2.48-5.57,5.45c-3.1,4-5.33,5.58-8.43,6.07-3.84.62-5.2,0-12.14-6-4.34-3.71-9.79-7.68-12-8.79a35.62,35.62,0,0,1-6.57-4.34,35.58,35.58,0,0,0-7.44-4.34,72.81,72.81,0,0,1-10-5.45l-5.08-3.59L497,43.32a35.23,35.23,0,0,1-10,4.21c-2.47.37-5.32,1.61-6.19,2.6-1.74,2.11-6.57,2.48-10,.5-1.86-1-3.34-.74-6.57,1.24-2.23,1.49-5.2,2.6-6.44,2.6s-3.72,2-5.45,4.34a15.64,15.64,0,0,1-8.55,5.82,20.78,20.78,0,0,0-8.8,5.45c-2.35,2.73-4,3.6-5.08,2.85-2.6-1.61-3.47-1.36-7.06,2.24-4.71,4.7-8.31,4.7-18,.12l-8.43-4.09-7.68,4A68.61,68.61,0,0,1,377.45,80c-5.33,1.24-30.11,13.75-38.16,19.21-6.2,4.21-7.44,4.7-10.17,3.47-4.21-2-6.81-.25-40.76,27-15.49,12.51-28.75,22.68-29.37,22.68s-1.24,1.36-1.24,3.09c0,4-.75,3.85-6.69-.62s-8.06-4.58-12.64,0c-2.11,2.11-5,3.72-6.82,3.72s-4.71,1.61-7.19,4.21c-4.33,4.47-8.55,5.95-11.64,4.22-1.12-.62-3.35-.37-5.46.37a21.54,21.54,0,0,1-6.56,1.36c-2.48,0-3.85,1.37-6.82,6.32s-5.2,7.19-9.91,9.67c-4.46,2.23-7.07,4.58-9.17,8.55-1.74,3-3.22,4.83-3.6,4-.62-1.85-4.33-1.85-6.19,0-1.12,1.12-2,1-3.6-.49a42.13,42.13,0,0,0-7.8-4.71,95.47,95.47,0,0,1-10.78-6.57l-5.21-3.72-4.95,4c-2.73,2.23-6.82,4.21-8.93,4.46a14.53,14.53,0,0,0-6.81,3.22c-2.73,2.48-3.35,2.6-8.43,1.12s-5.82-1.24-9.17,1.11c-2.11,1.37-4.71,2.61-6.07,2.61s-3.72,2.23-5.58,4.95c-2.35,3.35-4.83,5.33-8.42,6.32A20.07,20.07,0,0,0,71,214.82c-2.35,2.85-4.08,3.72-6.56,3.47s-4.09.5-6.2,3.1c-1.49,1.86-3.34,3.47-4.09,3.47C52.42,224.86,0,273.8,0,275.29c0,.5,222.8,1,495.05,1H990.1V196.36c0-71.5-.25-80.05-2-80.8a3.4,3.4,0,0,0-3.35.75c-2.11,2.1-2.73,1.73-8.18-4-4.46-4.58-5.33-5.08-7.43-3.72s-2.61,1.24-3.22-.74c-1-3.22-5.58-7.19-11.9-10.41a26.85,26.85,0,0,1-8.68-7.56c-2.6-3.84-4.46-5.2-9.29-6.44a29.15,29.15,0,0,0-10.53-1c-3.72.49-5.21,0-9.67-3.72-3-2.48-6.69-4.46-8.3-4.46s-4.58-1.37-6.44-3.1-4.59-3.1-6.08-3.1c-1.85,0-3.47-1.24-4.7-3.72-2-4-4.09-4.7-6.57-2.23-1.12,1.12-1.61.87-2.23-1-3.1-8.8-4.46-10.53-10.16-14.12-5.33-3.23-6.7-5-9.3-11.53-2-5.08-3.84-7.8-5.33-8s-4.09-2.36-6.07-4.84L847,18.29l-3.84,2.23-3.84,2.23-5.2-4.34A96.08,96.08,0,0,1,823.31,7c-4.59-5.82-6.08-6.94-7.44-5.7-1.24,1-1.73,1-1.73,0C814.14-1.42,812,.07,807.44,6.14Z"/></g></g></svg>